<?xml version="1.0" encoding="utf-8" standalone="no"?>
<!DOCTYPE svg PUBLIC "-//W3C//DTD SVG 1.1//EN"
  "http://www.w3.org/Graphics/SVG/1.1/DTD/svg11.dtd">
<!-- Created with matplotlib (https://matplotlib.org/) -->
<svg height="357.238125pt" version="1.1" viewBox="0 0 595.303125 357.238125" width="595.303125pt" xmlns="http://www.w3.org/2000/svg" xmlns:xlink="http://www.w3.org/1999/xlink">
 <metadata>
  <rdf:RDF xmlns:cc="http://creativecommons.org/ns#" xmlns:dc="http://purl.org/dc/elements/1.1/" xmlns:rdf="http://www.w3.org/1999/02/22-rdf-syntax-ns#">
   <cc:Work>
    <dc:type rdf:resource="http://purl.org/dc/dcmitype/StillImage"/>
    <dc:date>2021-06-06T13:08:33.073949</dc:date>
    <dc:format>image/svg+xml</dc:format>
    <dc:creator>
     <cc:Agent>
      <dc:title>Matplotlib v3.3.2, https://matplotlib.org/</dc:title>
     </cc:Agent>
    </dc:creator>
   </cc:Work>
  </rdf:RDF>
 </metadata>
 <defs>
  <style type="text/css">*{stroke-linecap:butt;stroke-linejoin:round;}</style>
 </defs>
 <g id="figure_1">
  <g id="patch_1">
   <path d="M -0 357.238125 
L 595.303125 357.238125 
L 595.303125 0 
L -0 0 
z
" style="fill:none;"/>
  </g>
  <g id="axes_1">
   <g id="patch_2">
    <path d="M 30.103125 333.36 
L 588.103125 333.36 
L 588.103125 7.2 
L 30.103125 7.2 
z
" style="fill:#ffffff;"/>
   </g>
   <g id="PathCollection_1">
    <defs>
     <path d="M 0 0.707107 
C 0.187527 0.707107 0.367398 0.632602 0.5 0.5 
C 0.632602 0.367398 0.707107 0.187527 0.707107 0 
C 0.707107 -0.187527 0.632602 -0.367398 0.5 -0.5 
C 0.367398 -0.632602 0.187527 -0.707107 0 -0.707107 
C -0.187527 -0.707107 -0.367398 -0.632602 -0.5 -0.5 
C -0.632602 -0.367398 -0.707107 -0.187527 -0.707107 0 
C -0.707107 0.187527 -0.632602 0.367398 -0.5 0.5 
C -0.367398 0.632602 -0.187527 0.707107 0 0.707107 
z
" id="mb68d01db34" style="stroke:#1f77b4;"/>
    </defs>
    <g clip-path="url(#p7033e93536)">
     <use style="fill:#1f77b4;stroke:#1f77b4;" x="55.466761" xlink:href="#mb68d01db34" y="318.534545"/>
     <use style="fill:#1f77b4;stroke:#1f77b4;" x="61.887935" xlink:href="#mb68d01db34" y="317.722052"/>
     <use style="fill:#1f77b4;stroke:#1f77b4;" x="68.309109" xlink:href="#mb68d01db34" y="316.103738"/>
     <use style="fill:#1f77b4;stroke:#1f77b4;" x="74.730283" xlink:href="#mb68d01db34" y="313.692855"/>
     <use style="fill:#1f77b4;stroke:#1f77b4;" x="81.151456" xlink:href="#mb68d01db34" y="310.509055"/>
     <use style="fill:#1f77b4;stroke:#1f77b4;" x="87.57263" xlink:href="#mb68d01db34" y="306.578126"/>
     <use style="fill:#1f77b4;stroke:#1f77b4;" x="93.993804" xlink:href="#mb68d01db34" y="301.931637"/>
     <use style="fill:#1f77b4;stroke:#1f77b4;" x="100.414978" xlink:href="#mb68d01db34" y="296.606525"/>
     <use style="fill:#1f77b4;stroke:#1f77b4;" x="106.836151" xlink:href="#mb68d01db34" y="290.644598"/>
     <use style="fill:#1f77b4;stroke:#1f77b4;" x="113.257325" xlink:href="#mb68d01db34" y="284.091994"/>
     <use style="fill:#1f77b4;stroke:#1f77b4;" x="119.678499" xlink:href="#mb68d01db34" y="276.998586"/>
     <use style="fill:#1f77b4;stroke:#1f77b4;" x="126.099673" xlink:href="#mb68d01db34" y="269.417351"/>
     <use style="fill:#1f77b4;stroke:#1f77b4;" x="132.520847" xlink:href="#mb68d01db34" y="261.403716"/>
     <use style="fill:#1f77b4;stroke:#1f77b4;" x="138.94202" xlink:href="#mb68d01db34" y="253.014882"/>
     <use style="fill:#1f77b4;stroke:#1f77b4;" x="145.363194" xlink:href="#mb68d01db34" y="244.309156"/>
     <use style="fill:#1f77b4;stroke:#1f77b4;" x="151.784368" xlink:href="#mb68d01db34" y="235.345284"/>
     <use style="fill:#1f77b4;stroke:#1f77b4;" x="158.205542" xlink:href="#mb68d01db34" y="226.181799"/>
     <use style="fill:#1f77b4;stroke:#1f77b4;" x="164.626715" xlink:href="#mb68d01db34" y="216.876407"/>
     <use style="fill:#1f77b4;stroke:#1f77b4;" x="171.047889" xlink:href="#mb68d01db34" y="207.485402"/>
     <use style="fill:#1f77b4;stroke:#1f77b4;" x="177.469063" xlink:href="#mb68d01db34" y="198.063126"/>
     <use style="fill:#1f77b4;stroke:#1f77b4;" x="183.890237" xlink:href="#mb68d01db34" y="188.661485"/>
     <use style="fill:#1f77b4;stroke:#1f77b4;" x="190.31141" xlink:href="#mb68d01db34" y="179.329518"/>
     <use style="fill:#1f77b4;stroke:#1f77b4;" x="196.732584" xlink:href="#mb68d01db34" y="170.113027"/>
     <use style="fill:#1f77b4;stroke:#1f77b4;" x="203.153758" xlink:href="#mb68d01db34" y="161.054271"/>
     <use style="fill:#1f77b4;stroke:#1f77b4;" x="209.574932" xlink:href="#mb68d01db34" y="152.191723"/>
     <use style="fill:#1f77b4;stroke:#1f77b4;" x="215.996105" xlink:href="#mb68d01db34" y="143.559896"/>
     <use style="fill:#1f77b4;stroke:#1f77b4;" x="222.417279" xlink:href="#mb68d01db34" y="135.189225"/>
     <use style="fill:#1f77b4;stroke:#1f77b4;" x="228.838453" xlink:href="#mb68d01db34" y="127.106019"/>
     <use style="fill:#1f77b4;stroke:#1f77b4;" x="235.259627" xlink:href="#mb68d01db34" y="119.332464"/>
     <use style="fill:#1f77b4;stroke:#1f77b4;" x="241.6808" xlink:href="#mb68d01db34" y="111.886684"/>
     <use style="fill:#1f77b4;stroke:#1f77b4;" x="248.101974" xlink:href="#mb68d01db34" y="104.78285"/>
     <use style="fill:#1f77b4;stroke:#1f77b4;" x="254.523148" xlink:href="#mb68d01db34" y="98.031332"/>
     <use style="fill:#1f77b4;stroke:#1f77b4;" x="260.944322" xlink:href="#mb68d01db34" y="91.638893"/>
     <use style="fill:#1f77b4;stroke:#1f77b4;" x="267.365496" xlink:href="#mb68d01db34" y="85.608907"/>
     <use style="fill:#1f77b4;stroke:#1f77b4;" x="273.786669" xlink:href="#mb68d01db34" y="79.941612"/>
     <use style="fill:#1f77b4;stroke:#1f77b4;" x="280.207843" xlink:href="#mb68d01db34" y="74.634378"/>
     <use style="fill:#1f77b4;stroke:#1f77b4;" x="286.629017" xlink:href="#mb68d01db34" y="69.681989"/>
     <use style="fill:#1f77b4;stroke:#1f77b4;" x="293.050191" xlink:href="#mb68d01db34" y="65.076933"/>
     <use style="fill:#1f77b4;stroke:#1f77b4;" x="299.471364" xlink:href="#mb68d01db34" y="60.809699"/>
     <use style="fill:#1f77b4;stroke:#1f77b4;" x="305.892538" xlink:href="#mb68d01db34" y="56.869066"/>
     <use style="fill:#1f77b4;stroke:#1f77b4;" x="312.313712" xlink:href="#mb68d01db34" y="53.242391"/>
     <use style="fill:#1f77b4;stroke:#1f77b4;" x="318.734886" xlink:href="#mb68d01db34" y="49.915884"/>
     <use style="fill:#1f77b4;stroke:#1f77b4;" x="325.156059" xlink:href="#mb68d01db34" y="46.874867"/>
     <use style="fill:#1f77b4;stroke:#1f77b4;" x="331.577233" xlink:href="#mb68d01db34" y="44.104026"/>
     <use style="fill:#1f77b4;stroke:#1f77b4;" x="337.998407" xlink:href="#mb68d01db34" y="41.587634"/>
     <use style="fill:#1f77b4;stroke:#1f77b4;" x="344.419581" xlink:href="#mb68d01db34" y="39.309762"/>
     <use style="fill:#1f77b4;stroke:#1f77b4;" x="350.840754" xlink:href="#mb68d01db34" y="37.254465"/>
     <use style="fill:#1f77b4;stroke:#1f77b4;" x="357.261928" xlink:href="#mb68d01db34" y="35.405948"/>
     <use style="fill:#1f77b4;stroke:#1f77b4;" x="363.683102" xlink:href="#mb68d01db34" y="33.748711"/>
     <use style="fill:#1f77b4;stroke:#1f77b4;" x="370.104276" xlink:href="#mb68d01db34" y="32.267675"/>
     <use style="fill:#1f77b4;stroke:#1f77b4;" x="376.52545" xlink:href="#mb68d01db34" y="30.94828"/>
     <use style="fill:#1f77b4;stroke:#1f77b4;" x="382.946623" xlink:href="#mb68d01db34" y="29.776574"/>
     <use style="fill:#1f77b4;stroke:#1f77b4;" x="389.367797" xlink:href="#mb68d01db34" y="28.739272"/>
     <use style="fill:#1f77b4;stroke:#1f77b4;" x="395.788971" xlink:href="#mb68d01db34" y="27.823813"/>
     <use style="fill:#1f77b4;stroke:#1f77b4;" x="402.210145" xlink:href="#mb68d01db34" y="27.018384"/>
     <use style="fill:#1f77b4;stroke:#1f77b4;" x="408.631318" xlink:href="#mb68d01db34" y="26.311944"/>
     <use style="fill:#1f77b4;stroke:#1f77b4;" x="415.052492" xlink:href="#mb68d01db34" y="25.694229"/>
     <use style="fill:#1f77b4;stroke:#1f77b4;" x="421.473666" xlink:href="#mb68d01db34" y="25.155746"/>
     <use style="fill:#1f77b4;stroke:#1f77b4;" x="427.89484" xlink:href="#mb68d01db34" y="24.687762"/>
     <use style="fill:#1f77b4;stroke:#1f77b4;" x="434.316013" xlink:href="#mb68d01db34" y="24.282283"/>
     <use style="fill:#1f77b4;stroke:#1f77b4;" x="440.737187" xlink:href="#mb68d01db34" y="23.932022"/>
     <use style="fill:#1f77b4;stroke:#1f77b4;" x="447.158361" xlink:href="#mb68d01db34" y="23.630373"/>
     <use style="fill:#1f77b4;stroke:#1f77b4;" x="453.579535" xlink:href="#mb68d01db34" y="23.37137"/>
     <use style="fill:#1f77b4;stroke:#1f77b4;" x="460.000708" xlink:href="#mb68d01db34" y="23.149651"/>
     <use style="fill:#1f77b4;stroke:#1f77b4;" x="466.421882" xlink:href="#mb68d01db34" y="22.960417"/>
     <use style="fill:#1f77b4;stroke:#1f77b4;" x="472.843056" xlink:href="#mb68d01db34" y="22.799389"/>
     <use style="fill:#1f77b4;stroke:#1f77b4;" x="479.26423" xlink:href="#mb68d01db34" y="22.662771"/>
     <use style="fill:#1f77b4;stroke:#1f77b4;" x="485.685403" xlink:href="#mb68d01db34" y="22.547207"/>
     <use style="fill:#1f77b4;stroke:#1f77b4;" x="492.106577" xlink:href="#mb68d01db34" y="22.449742"/>
     <use style="fill:#1f77b4;stroke:#1f77b4;" x="498.527751" xlink:href="#mb68d01db34" y="22.367784"/>
     <use style="fill:#1f77b4;stroke:#1f77b4;" x="504.948925" xlink:href="#mb68d01db34" y="22.299068"/>
     <use style="fill:#1f77b4;stroke:#1f77b4;" x="511.370099" xlink:href="#mb68d01db34" y="22.241626"/>
     <use style="fill:#1f77b4;stroke:#1f77b4;" x="517.791272" xlink:href="#mb68d01db34" y="22.193748"/>
     <use style="fill:#1f77b4;stroke:#1f77b4;" x="524.212446" xlink:href="#mb68d01db34" y="22.153959"/>
     <use style="fill:#1f77b4;stroke:#1f77b4;" x="530.63362" xlink:href="#mb68d01db34" y="22.120989"/>
     <use style="fill:#1f77b4;stroke:#1f77b4;" x="537.054794" xlink:href="#mb68d01db34" y="22.093749"/>
     <use style="fill:#1f77b4;stroke:#1f77b4;" x="543.475967" xlink:href="#mb68d01db34" y="22.07131"/>
     <use style="fill:#1f77b4;stroke:#1f77b4;" x="549.897141" xlink:href="#mb68d01db34" y="22.052878"/>
     <use style="fill:#1f77b4;stroke:#1f77b4;" x="556.318315" xlink:href="#mb68d01db34" y="22.037782"/>
     <use style="fill:#1f77b4;stroke:#1f77b4;" x="562.739489" xlink:href="#mb68d01db34" y="22.025455"/>
    </g>
   </g>
   <g id="matplotlib.axis_1">
    <g id="xtick_1">
     <g id="line2d_1">
      <defs>
       <path d="M 0 0 
L 0 3.5 
" id="m0aa19d955c" style="stroke:#000000;stroke-width:0.8;"/>
      </defs>
      <g>
       <use style="stroke:#000000;stroke-width:0.8;" x="49.045588" xlink:href="#m0aa19d955c" y="333.36"/>
      </g>
     </g>
     <g id="text_1">
      <!-- 0 -->
      <g transform="translate(45.864338 347.958438)scale(0.1 -0.1)">
       <defs>
        <path d="M 31.78125 66.40625 
Q 24.171875 66.40625 20.328125 58.90625 
Q 16.5 51.421875 16.5 36.375 
Q 16.5 21.390625 20.328125 13.890625 
Q 24.171875 6.390625 31.78125 6.390625 
Q 39.453125 6.390625 43.28125 13.890625 
Q 47.125 21.390625 47.125 36.375 
Q 47.125 51.421875 43.28125 58.90625 
Q 39.453125 66.40625 31.78125 66.40625 
z
M 31.78125 74.21875 
Q 44.046875 74.21875 50.515625 64.515625 
Q 56.984375 54.828125 56.984375 36.375 
Q 56.984375 17.96875 50.515625 8.265625 
Q 44.046875 -1.421875 31.78125 -1.421875 
Q 19.53125 -1.421875 13.0625 8.265625 
Q 6.59375 17.96875 6.59375 36.375 
Q 6.59375 54.828125 13.0625 64.515625 
Q 19.53125 74.21875 31.78125 74.21875 
z
" id="DejaVuSans-48"/>
       </defs>
       <use xlink:href="#DejaVuSans-48"/>
      </g>
     </g>
    </g>
    <g id="xtick_2">
     <g id="line2d_2">
      <g>
       <use style="stroke:#000000;stroke-width:0.8;" x="113.257325" xlink:href="#m0aa19d955c" y="333.36"/>
      </g>
     </g>
     <g id="text_2">
      <!-- 10 -->
      <g transform="translate(106.894825 347.958438)scale(0.1 -0.1)">
       <defs>
        <path d="M 12.40625 8.296875 
L 28.515625 8.296875 
L 28.515625 63.921875 
L 10.984375 60.40625 
L 10.984375 69.390625 
L 28.421875 72.90625 
L 38.28125 72.90625 
L 38.28125 8.296875 
L 54.390625 8.296875 
L 54.390625 0 
L 12.40625 0 
z
" id="DejaVuSans-49"/>
       </defs>
       <use xlink:href="#DejaVuSans-49"/>
       <use x="63.623047" xlink:href="#DejaVuSans-48"/>
      </g>
     </g>
    </g>
    <g id="xtick_3">
     <g id="line2d_3">
      <g>
       <use style="stroke:#000000;stroke-width:0.8;" x="177.469063" xlink:href="#m0aa19d955c" y="333.36"/>
      </g>
     </g>
     <g id="text_3">
      <!-- 20 -->
      <g transform="translate(171.106563 347.958438)scale(0.1 -0.1)">
       <defs>
        <path d="M 19.1875 8.296875 
L 53.609375 8.296875 
L 53.609375 0 
L 7.328125 0 
L 7.328125 8.296875 
Q 12.9375 14.109375 22.625 23.890625 
Q 32.328125 33.6875 34.8125 36.53125 
Q 39.546875 41.84375 41.421875 45.53125 
Q 43.3125 49.21875 43.3125 52.78125 
Q 43.3125 58.59375 39.234375 62.25 
Q 35.15625 65.921875 28.609375 65.921875 
Q 23.96875 65.921875 18.8125 64.3125 
Q 13.671875 62.703125 7.8125 59.421875 
L 7.8125 69.390625 
Q 13.765625 71.78125 18.9375 73 
Q 24.125 74.21875 28.421875 74.21875 
Q 39.75 74.21875 46.484375 68.546875 
Q 53.21875 62.890625 53.21875 53.421875 
Q 53.21875 48.921875 51.53125 44.890625 
Q 49.859375 40.875 45.40625 35.40625 
Q 44.1875 33.984375 37.640625 27.21875 
Q 31.109375 20.453125 19.1875 8.296875 
z
" id="DejaVuSans-50"/>
       </defs>
       <use xlink:href="#DejaVuSans-50"/>
       <use x="63.623047" xlink:href="#DejaVuSans-48"/>
      </g>
     </g>
    </g>
    <g id="xtick_4">
     <g id="line2d_4">
      <g>
       <use style="stroke:#000000;stroke-width:0.8;" x="241.6808" xlink:href="#m0aa19d955c" y="333.36"/>
      </g>
     </g>
     <g id="text_4">
      <!-- 30 -->
      <g transform="translate(235.3183 347.958438)scale(0.1 -0.1)">
       <defs>
        <path d="M 40.578125 39.3125 
Q 47.65625 37.796875 51.625 33 
Q 55.609375 28.21875 55.609375 21.1875 
Q 55.609375 10.40625 48.1875 4.484375 
Q 40.765625 -1.421875 27.09375 -1.421875 
Q 22.515625 -1.421875 17.65625 -0.515625 
Q 12.796875 0.390625 7.625 2.203125 
L 7.625 11.71875 
Q 11.71875 9.328125 16.59375 8.109375 
Q 21.484375 6.890625 26.8125 6.890625 
Q 36.078125 6.890625 40.9375 10.546875 
Q 45.796875 14.203125 45.796875 21.1875 
Q 45.796875 27.640625 41.28125 31.265625 
Q 36.765625 34.90625 28.71875 34.90625 
L 20.21875 34.90625 
L 20.21875 43.015625 
L 29.109375 43.015625 
Q 36.375 43.015625 40.234375 45.921875 
Q 44.09375 48.828125 44.09375 54.296875 
Q 44.09375 59.90625 40.109375 62.90625 
Q 36.140625 65.921875 28.71875 65.921875 
Q 24.65625 65.921875 20.015625 65.03125 
Q 15.375 64.15625 9.8125 62.3125 
L 9.8125 71.09375 
Q 15.4375 72.65625 20.34375 73.4375 
Q 25.25 74.21875 29.59375 74.21875 
Q 40.828125 74.21875 47.359375 69.109375 
Q 53.90625 64.015625 53.90625 55.328125 
Q 53.90625 49.265625 50.4375 45.09375 
Q 46.96875 40.921875 40.578125 39.3125 
z
" id="DejaVuSans-51"/>
       </defs>
       <use xlink:href="#DejaVuSans-51"/>
       <use x="63.623047" xlink:href="#DejaVuSans-48"/>
      </g>
     </g>
    </g>
    <g id="xtick_5">
     <g id="line2d_5">
      <g>
       <use style="stroke:#000000;stroke-width:0.8;" x="305.892538" xlink:href="#m0aa19d955c" y="333.36"/>
      </g>
     </g>
     <g id="text_5">
      <!-- 40 -->
      <g transform="translate(299.530038 347.958438)scale(0.1 -0.1)">
       <defs>
        <path d="M 37.796875 64.3125 
L 12.890625 25.390625 
L 37.796875 25.390625 
z
M 35.203125 72.90625 
L 47.609375 72.90625 
L 47.609375 25.390625 
L 58.015625 25.390625 
L 58.015625 17.1875 
L 47.609375 17.1875 
L 47.609375 0 
L 37.796875 0 
L 37.796875 17.1875 
L 4.890625 17.1875 
L 4.890625 26.703125 
z
" id="DejaVuSans-52"/>
       </defs>
       <use xlink:href="#DejaVuSans-52"/>
       <use x="63.623047" xlink:href="#DejaVuSans-48"/>
      </g>
     </g>
    </g>
    <g id="xtick_6">
     <g id="line2d_6">
      <g>
       <use style="stroke:#000000;stroke-width:0.8;" x="370.104276" xlink:href="#m0aa19d955c" y="333.36"/>
      </g>
     </g>
     <g id="text_6">
      <!-- 50 -->
      <g transform="translate(363.741776 347.958438)scale(0.1 -0.1)">
       <defs>
        <path d="M 10.796875 72.90625 
L 49.515625 72.90625 
L 49.515625 64.59375 
L 19.828125 64.59375 
L 19.828125 46.734375 
Q 21.96875 47.46875 24.109375 47.828125 
Q 26.265625 48.1875 28.421875 48.1875 
Q 40.625 48.1875 47.75 41.5 
Q 54.890625 34.8125 54.890625 23.390625 
Q 54.890625 11.625 47.5625 5.09375 
Q 40.234375 -1.421875 26.90625 -1.421875 
Q 22.3125 -1.421875 17.546875 -0.640625 
Q 12.796875 0.140625 7.71875 1.703125 
L 7.71875 11.625 
Q 12.109375 9.234375 16.796875 8.0625 
Q 21.484375 6.890625 26.703125 6.890625 
Q 35.15625 6.890625 40.078125 11.328125 
Q 45.015625 15.765625 45.015625 23.390625 
Q 45.015625 31 40.078125 35.4375 
Q 35.15625 39.890625 26.703125 39.890625 
Q 22.75 39.890625 18.8125 39.015625 
Q 14.890625 38.140625 10.796875 36.28125 
z
" id="DejaVuSans-53"/>
       </defs>
       <use xlink:href="#DejaVuSans-53"/>
       <use x="63.623047" xlink:href="#DejaVuSans-48"/>
      </g>
     </g>
    </g>
    <g id="xtick_7">
     <g id="line2d_7">
      <g>
       <use style="stroke:#000000;stroke-width:0.8;" x="434.316013" xlink:href="#m0aa19d955c" y="333.36"/>
      </g>
     </g>
     <g id="text_7">
      <!-- 60 -->
      <g transform="translate(427.953513 347.958438)scale(0.1 -0.1)">
       <defs>
        <path d="M 33.015625 40.375 
Q 26.375 40.375 22.484375 35.828125 
Q 18.609375 31.296875 18.609375 23.390625 
Q 18.609375 15.53125 22.484375 10.953125 
Q 26.375 6.390625 33.015625 6.390625 
Q 39.65625 6.390625 43.53125 10.953125 
Q 47.40625 15.53125 47.40625 23.390625 
Q 47.40625 31.296875 43.53125 35.828125 
Q 39.65625 40.375 33.015625 40.375 
z
M 52.59375 71.296875 
L 52.59375 62.3125 
Q 48.875 64.0625 45.09375 64.984375 
Q 41.3125 65.921875 37.59375 65.921875 
Q 27.828125 65.921875 22.671875 59.328125 
Q 17.53125 52.734375 16.796875 39.40625 
Q 19.671875 43.65625 24.015625 45.921875 
Q 28.375 48.1875 33.59375 48.1875 
Q 44.578125 48.1875 50.953125 41.515625 
Q 57.328125 34.859375 57.328125 23.390625 
Q 57.328125 12.15625 50.6875 5.359375 
Q 44.046875 -1.421875 33.015625 -1.421875 
Q 20.359375 -1.421875 13.671875 8.265625 
Q 6.984375 17.96875 6.984375 36.375 
Q 6.984375 53.65625 15.1875 63.9375 
Q 23.390625 74.21875 37.203125 74.21875 
Q 40.921875 74.21875 44.703125 73.484375 
Q 48.484375 72.75 52.59375 71.296875 
z
" id="DejaVuSans-54"/>
       </defs>
       <use xlink:href="#DejaVuSans-54"/>
       <use x="63.623047" xlink:href="#DejaVuSans-48"/>
      </g>
     </g>
    </g>
    <g id="xtick_8">
     <g id="line2d_8">
      <g>
       <use style="stroke:#000000;stroke-width:0.8;" x="498.527751" xlink:href="#m0aa19d955c" y="333.36"/>
      </g>
     </g>
     <g id="text_8">
      <!-- 70 -->
      <g transform="translate(492.165251 347.958438)scale(0.1 -0.1)">
       <defs>
        <path d="M 8.203125 72.90625 
L 55.078125 72.90625 
L 55.078125 68.703125 
L 28.609375 0 
L 18.3125 0 
L 43.21875 64.59375 
L 8.203125 64.59375 
z
" id="DejaVuSans-55"/>
       </defs>
       <use xlink:href="#DejaVuSans-55"/>
       <use x="63.623047" xlink:href="#DejaVuSans-48"/>
      </g>
     </g>
    </g>
    <g id="xtick_9">
     <g id="line2d_9">
      <g>
       <use style="stroke:#000000;stroke-width:0.8;" x="562.739489" xlink:href="#m0aa19d955c" y="333.36"/>
      </g>
     </g>
     <g id="text_9">
      <!-- 80 -->
      <g transform="translate(556.376989 347.958438)scale(0.1 -0.1)">
       <defs>
        <path d="M 31.78125 34.625 
Q 24.75 34.625 20.71875 30.859375 
Q 16.703125 27.09375 16.703125 20.515625 
Q 16.703125 13.921875 20.71875 10.15625 
Q 24.75 6.390625 31.78125 6.390625 
Q 38.8125 6.390625 42.859375 10.171875 
Q 46.921875 13.96875 46.921875 20.515625 
Q 46.921875 27.09375 42.890625 30.859375 
Q 38.875 34.625 31.78125 34.625 
z
M 21.921875 38.8125 
Q 15.578125 40.375 12.03125 44.71875 
Q 8.5 49.078125 8.5 55.328125 
Q 8.5 64.0625 14.71875 69.140625 
Q 20.953125 74.21875 31.78125 74.21875 
Q 42.671875 74.21875 48.875 69.140625 
Q 55.078125 64.0625 55.078125 55.328125 
Q 55.078125 49.078125 51.53125 44.71875 
Q 48 40.375 41.703125 38.8125 
Q 48.828125 37.15625 52.796875 32.3125 
Q 56.78125 27.484375 56.78125 20.515625 
Q 56.78125 9.90625 50.3125 4.234375 
Q 43.84375 -1.421875 31.78125 -1.421875 
Q 19.734375 -1.421875 13.25 4.234375 
Q 6.78125 9.90625 6.78125 20.515625 
Q 6.78125 27.484375 10.78125 32.3125 
Q 14.796875 37.15625 21.921875 38.8125 
z
M 18.3125 54.390625 
Q 18.3125 48.734375 21.84375 45.5625 
Q 25.390625 42.390625 31.78125 42.390625 
Q 38.140625 42.390625 41.71875 45.5625 
Q 45.3125 48.734375 45.3125 54.390625 
Q 45.3125 60.0625 41.71875 63.234375 
Q 38.140625 66.40625 31.78125 66.40625 
Q 25.390625 66.40625 21.84375 63.234375 
Q 18.3125 60.0625 18.3125 54.390625 
z
" id="DejaVuSans-56"/>
       </defs>
       <use xlink:href="#DejaVuSans-56"/>
       <use x="63.623047" xlink:href="#DejaVuSans-48"/>
      </g>
     </g>
    </g>
   </g>
   <g id="matplotlib.axis_2">
    <g id="ytick_1">
     <g id="line2d_10">
      <defs>
       <path d="M 0 0 
L -3.5 0 
" id="m605728fdab" style="stroke:#000000;stroke-width:0.8;"/>
      </defs>
      <g>
       <use style="stroke:#000000;stroke-width:0.8;" x="30.103125" xlink:href="#m605728fdab" y="318.534545"/>
      </g>
     </g>
     <g id="text_10">
      <!-- 0.0 -->
      <g transform="translate(7.2 322.333764)scale(0.1 -0.1)">
       <defs>
        <path d="M 10.6875 12.40625 
L 21 12.40625 
L 21 0 
L 10.6875 0 
z
" id="DejaVuSans-46"/>
       </defs>
       <use xlink:href="#DejaVuSans-48"/>
       <use x="63.623047" xlink:href="#DejaVuSans-46"/>
       <use x="95.410156" xlink:href="#DejaVuSans-48"/>
      </g>
     </g>
    </g>
    <g id="ytick_2">
     <g id="line2d_11">
      <g>
       <use style="stroke:#000000;stroke-width:0.8;" x="30.103125" xlink:href="#m605728fdab" y="259.22254"/>
      </g>
     </g>
     <g id="text_11">
      <!-- 0.2 -->
      <g transform="translate(7.2 263.021759)scale(0.1 -0.1)">
       <use xlink:href="#DejaVuSans-48"/>
       <use x="63.623047" xlink:href="#DejaVuSans-46"/>
       <use x="95.410156" xlink:href="#DejaVuSans-50"/>
      </g>
     </g>
    </g>
    <g id="ytick_3">
     <g id="line2d_12">
      <g>
       <use style="stroke:#000000;stroke-width:0.8;" x="30.103125" xlink:href="#m605728fdab" y="199.910534"/>
      </g>
     </g>
     <g id="text_12">
      <!-- 0.4 -->
      <g transform="translate(7.2 203.709753)scale(0.1 -0.1)">
       <use xlink:href="#DejaVuSans-48"/>
       <use x="63.623047" xlink:href="#DejaVuSans-46"/>
       <use x="95.410156" xlink:href="#DejaVuSans-52"/>
      </g>
     </g>
    </g>
    <g id="ytick_4">
     <g id="line2d_13">
      <g>
       <use style="stroke:#000000;stroke-width:0.8;" x="30.103125" xlink:href="#m605728fdab" y="140.598529"/>
      </g>
     </g>
     <g id="text_13">
      <!-- 0.6 -->
      <g transform="translate(7.2 144.397747)scale(0.1 -0.1)">
       <use xlink:href="#DejaVuSans-48"/>
       <use x="63.623047" xlink:href="#DejaVuSans-46"/>
       <use x="95.410156" xlink:href="#DejaVuSans-54"/>
      </g>
     </g>
    </g>
    <g id="ytick_5">
     <g id="line2d_14">
      <g>
       <use style="stroke:#000000;stroke-width:0.8;" x="30.103125" xlink:href="#m605728fdab" y="81.286523"/>
      </g>
     </g>
     <g id="text_14">
      <!-- 0.8 -->
      <g transform="translate(7.2 85.085742)scale(0.1 -0.1)">
       <use xlink:href="#DejaVuSans-48"/>
       <use x="63.623047" xlink:href="#DejaVuSans-46"/>
       <use x="95.410156" xlink:href="#DejaVuSans-56"/>
      </g>
     </g>
    </g>
    <g id="ytick_6">
     <g id="line2d_15">
      <g>
       <use style="stroke:#000000;stroke-width:0.8;" x="30.103125" xlink:href="#m605728fdab" y="21.974518"/>
      </g>
     </g>
     <g id="text_15">
      <!-- 1.0 -->
      <g transform="translate(7.2 25.773736)scale(0.1 -0.1)">
       <use xlink:href="#DejaVuSans-49"/>
       <use x="63.623047" xlink:href="#DejaVuSans-46"/>
       <use x="95.410156" xlink:href="#DejaVuSans-48"/>
      </g>
     </g>
    </g>
   </g>
   <g id="line2d_16">
    <path clip-path="url(#p7033e93536)" d="M 30.103125 21.974518 
L 588.103125 21.974518 
" style="fill:none;stroke:#1f77b4;stroke-linecap:square;stroke-opacity:0.1;stroke-width:1.5;"/>
   </g>
   <g id="line2d_17">
    <path clip-path="url(#p7033e93536)" d="M 30.103125 318.534545 
L 588.103125 318.534545 
" style="fill:none;stroke:#1f77b4;stroke-linecap:square;stroke-opacity:0.1;stroke-width:1.5;"/>
   </g>
   <g id="patch_3">
    <path d="M 30.103125 333.36 
L 30.103125 7.2 
" style="fill:none;stroke:#000000;stroke-linecap:square;stroke-linejoin:miter;stroke-width:0.8;"/>
   </g>
   <g id="patch_4">
    <path d="M 588.103125 333.36 
L 588.103125 7.2 
" style="fill:none;stroke:#000000;stroke-linecap:square;stroke-linejoin:miter;stroke-width:0.8;"/>
   </g>
   <g id="patch_5">
    <path d="M 30.103125 333.36 
L 588.103125 333.36 
" style="fill:none;stroke:#000000;stroke-linecap:square;stroke-linejoin:miter;stroke-width:0.8;"/>
   </g>
   <g id="patch_6">
    <path d="M 30.103125 7.2 
L 588.103125 7.2 
" style="fill:none;stroke:#000000;stroke-linecap:square;stroke-linejoin:miter;stroke-width:0.8;"/>
   </g>
  </g>
 </g>
 <defs>
  <clipPath id="p7033e93536">
   <rect height="326.16" width="558" x="30.103125" y="7.2"/>
  </clipPath>
 </defs>
</svg>
